<svg width="16" height="16" viewBox="0 0 16 16" fill="none" xmlns="http://www.w3.org/2000/svg">
<path d="M11.8554 10.9274L14.6666 13.7379L13.7378 14.6667L10.9273 11.8555C9.88154 12.6938 8.5808 13.1498 7.24051 13.1479C3.9797 13.1479 1.33325 10.5014 1.33325 7.2406C1.33325 3.97979 3.9797 1.33334 7.24051 1.33334C10.5013 1.33334 13.1478 3.97979 13.1478 7.2406C13.1497 8.58089 12.6937 9.88163 11.8554 10.9274ZM10.5387 10.4404C11.3717 9.58374 11.8369 8.43546 11.835 7.2406C11.835 4.70179 9.77866 2.64607 7.24051 2.64607C4.7017 2.64607 2.64598 4.70179 2.64598 7.2406C2.64598 9.77875 4.7017 11.8351 7.24051 11.8351C8.43537 11.837 9.58364 11.3718 10.4403 10.5388L10.5387 10.4404Z" fill="#3464BC"/>
</svg>
