<svg width="118"
height="38"
viewBox="0 0 108 32"
fill="none"
xmlns="http://www.w3.org/2000/svg">
<g id="accelya-logo">
    <path
    d="M8.63585 6.06592C3.87389 6.06592 0 10.1496 0 15.1685C0 20.1883 3.87389 24.2728 8.63585 24.2728C10.5493 24.2728 12.3858 23.6062 13.8795 22.403V24.1752L17.2717 24.1801V15.1685C17.2717 10.1496 13.3978 6.06592 8.63585 6.06592ZM13.8622 15.1685C13.8622 18.2069 11.5181 20.6779 8.63585 20.6779C5.75357 20.6779 3.40946 18.206 3.40946 15.1685C3.40946 12.131 5.75357 9.65916 8.63585 9.65916C11.5173 9.65999 13.8622 12.131 13.8622 15.1685Z"
    fill="#001871" />
    <path
    d="M71.5733 19.4713V0H68.1803C68.1803 0 68.1803 18.8428 68.1803 19.4713C68.1803 20.1006 67.9857 21.9126 69.4677 23.3408C70.4491 24.2868 72.124 24.2728 72.7382 24.2728H73.4898V20.7002H72.7382C72.0957 20.6994 71.5733 20.1486 71.5733 19.4713Z"
    fill="#001871" />
    <path
    d="M85.4325 15.2661C85.4325 15.3629 85.4325 15.4629 85.4365 15.5646L85.4333 15.7582H85.4341C85.4349 15.821 85.4349 16.1336 85.4349 17.3079C85.4349 19.4531 83.5199 20.6398 82.1964 20.6398C80.3489 20.6398 78.9682 18.9338 78.9682 17.4088V6.06592H75.5752L75.576 17.4733C75.576 20.6456 78.3021 24.1934 81.9509 24.1934L82.0607 24.1917L82.1964 24.1934C83.2995 24.1934 84.4903 23.8585 85.4333 23.3176L85.4341 25.2279C85.3745 27.3177 83.7215 28.4135 82.1972 28.4457C80.1167 28.4896 78.2904 25.3611 78.2904 25.3611L75.7823 26.9919L75.9635 27.4757C76.781 29.6548 79.0035 32.0001 81.9509 32.0001L82.0615 31.9984L82.1972 32.0001C84.3562 32.0001 88.5196 30.5992 88.8271 25.2503V6.06592H85.4325V15.2661Z"
    fill="#001871" />
    <path
    d="M98.9923 6.06592C94.2303 6.06592 90.3564 10.1496 90.3564 15.1685C90.3564 20.1883 94.2303 24.2728 98.9923 24.2728C100.906 24.2728 102.742 23.6062 104.235 22.403V24.1752L107.627 24.1802V15.1685C107.627 10.1496 103.753 6.06592 98.9923 6.06592ZM104.218 15.1685C104.218 18.2069 101.874 20.6779 98.9915 20.6779C96.11 20.6779 93.7651 18.206 93.7651 15.1685C93.7651 12.131 96.1092 9.65916 98.9915 9.65916C101.874 9.65999 104.218 12.131 104.218 15.1685Z"
    fill="#001871" />
    <path
    d="M31.1337 19.2894C30.1797 20.1776 28.952 20.6671 27.6771 20.6671C24.7956 20.6671 22.4515 18.1961 22.4515 15.1586C22.4515 12.1211 24.7956 9.65008 27.6771 9.65008C28.7535 9.65008 29.7961 10.0024 30.6685 10.6458L32.4085 7.53962C31.0097 6.57288 29.3725 6.04443 27.6771 6.04443C22.9097 6.04443 19.0303 10.133 19.0303 15.1594C19.0303 20.185 22.9089 24.2736 27.6771 24.2736C29.8345 24.2736 31.9002 23.4317 33.4951 21.9018L34.0811 21.3395L31.6664 18.7949L31.1337 19.2894Z"
    fill="#001871" />
    <path
    d="M46.0692 19.2894C45.1152 20.1776 43.8875 20.6671 42.6127 20.6671C39.7312 20.6671 37.3871 18.1961 37.3871 15.1586C37.3871 12.1211 39.7312 9.65008 42.6127 9.65008C43.689 9.65008 44.7316 10.0024 45.604 10.6458L47.344 7.53962C45.9452 6.57288 44.308 6.04443 42.6127 6.04443C37.8452 6.04443 33.9658 10.133 33.9658 15.1594C33.9658 20.185 37.8444 24.2736 42.6127 24.2736C44.7701 24.2736 46.8357 23.4317 48.4306 21.9018L49.0166 21.3395L46.6019 18.7949L46.0692 19.2894Z"
    fill="#001871" />
    <path
    d="M61.4078 18.8296C60.4444 19.9733 59.0417 20.6953 57.4766 20.6953C54.8297 20.6953 52.6401 18.6336 52.2722 15.9509H66.0348V15.1561C66.0348 10.1479 62.1703 6.07422 57.4194 6.07422C52.6692 6.07422 48.8047 10.1479 48.8047 15.1561C48.8047 16.3892 49.1161 17.8769 49.4652 18.6369C49.5413 18.8031 49.5853 18.8974 49.6065 18.9421C50.9715 22.0871 53.9817 24.2728 57.4774 24.2728C59.98 24.2728 62.2315 23.1522 63.8107 21.3618L61.4078 18.8296ZM57.4052 9.23578C59.2818 9.23578 61.5286 10.1934 62.401 13.0655L52.4095 13.0664C53.2528 10.1934 55.5287 9.23578 57.4052 9.23578ZM49.4825 18.6435C49.4935 18.6708 49.5045 18.6973 49.5155 18.7238C49.4958 18.6774 49.4825 18.6435 49.4825 18.6435Z"
    fill="#001871" />
</g>
</svg>