<svg  viewBox="0 0 24 24" fill="none" xmlns="http://www.w3.org/2000/svg">
<g id="System/logout_circle">
<path id="Vector" d="M6 11H14V13H6V16L1 12L6 8V11ZM5 18H7.708C8.86269 19.0183 10.2867 19.6819 11.8091 19.9109C13.3316 20.14 14.8878 19.9249 16.291 19.2915C17.6942 18.6581 18.8849 17.6332 19.7201 16.3398C20.5553 15.0465 20.9995 13.5396 20.9995 12C20.9995 10.4604 20.5553 8.95354 19.7201 7.66019C18.8849 6.36683 17.6942 5.34194 16.291 4.7085C14.8878 4.07506 13.3316 3.85998 11.8091 4.08906C10.2867 4.31815 8.86269 4.98167 7.708 6H5C5.93066 4.75718 7.13833 3.74851 8.52707 3.05414C9.91581 2.35978 11.4473 1.99884 13 2C18.523 2 23 6.477 23 12C23 17.523 18.523 22 13 22C11.4473 22.0012 9.91581 21.6402 8.52707 20.9459C7.13833 20.2515 5.93066 19.2428 5 18Z" fill="#425563"/>
</g>
</svg>
