<svg width="47" height="51" viewBox="0 0 47 51" fill="none" xmlns="http://www.w3.org/2000/svg">
<g id="Document/todo">
<path id="Vector" d="M34.3944 9.99574L40.19 8.44282C40.7023 8.30554 41.2483 8.37741 41.7076 8.64262C42.167 8.90784 42.5022 9.34468 42.6395 9.85704L51.957 44.6304C52.0942 45.1427 52.0224 45.6886 51.7572 46.148C51.4919 46.6074 51.0551 46.9426 50.5427 47.0799L19.6331 55.3621C19.1208 55.4994 18.5749 55.4275 18.1155 55.1623C17.6561 54.897 17.3209 54.4602 17.1836 53.9479L7.86615 19.1745C7.72886 18.6622 7.80073 18.1163 8.06595 17.6569C8.33116 17.1975 8.768 16.8623 9.28036 16.725L15.0759 15.1721L14.0406 11.3084L17.9043 10.2731L18.9396 14.1368L30.5307 11.031L29.4955 7.16731L33.3592 6.13203L34.3944 9.99574ZM35.4297 13.8594L36.465 17.7231L32.6013 18.7584L31.566 14.8947L19.9749 18.0005L21.0102 21.8642L17.1465 22.8995L16.1112 19.0358L12.2475 20.0711L20.5297 50.9807L47.5756 43.7338L39.2934 12.8242L35.4297 13.8594ZM18.1817 26.7632L37.5003 21.5868L38.5355 25.4506L19.217 30.6269L18.1817 26.7632ZM20.2523 34.4906L39.5708 29.3143L40.6061 33.178L21.2876 38.3543L20.2523 34.4906Z" fill="#274B8D"/>
</g>
</svg>
