
<!-- <svg width="20" height="20" viewBox="0 0 512 512" fill="none" xmlns="http://www.w3.org/2000/svg">
<g id="Frame">
<path id="Vector" d="M255.545 8c-66.269.119-126.438 26.233-170.86 68.685L48.971 40.971C33.851 25.851 8 36.559 8 57.941V192c0 13.255 10.745 24 24 24h134.059c21.382 0 32.09-25.851 16.971-40.971l-41.75-41.75c30.864-28.899 70.801-44.907 113.23-45.273 92.398-.798 170.283 73.977 169.484 169.442C423.236 348.009 349.816 424 256 424c-41.127 0-79.997-14.678-110.63-41.556-4.743-4.161-11.906-3.908-16.368.553L89.34 422.659c-4.872 4.872-4.631 12.815.482 17.433C133.798 479.813 192.074 504 256 504c136.966 0 247.999-111.033 248-247.998C504.001 119.193 392.354 7.755 255.545 8z" fill="#000"/>
</g>
</svg> -->

<!-- <svg width="20" height="20" viewBox="0 0 512 512" xmlns="http://www.w3.org/2000/svg" fill="none">

 <g>
  <title>Layer 1</title>
  <path opacity="0.22" fill="#fff" d="m255.545,8.00017c-66.269,0.119 -126.438,26.233 -170.86,68.685l-35.714,-35.714c-15.12,-15.12 -40.971,-4.412 -40.971,16.97l0,134.059c0,13.255 10.745,24 24,24l134.059,0c21.382,0 32.09,-25.851 16.971,-40.971l-41.75,-41.75c30.864,-28.899 70.801,-44.907 113.23,-45.273c92.398,-0.798 170.283,73.977 169.484,169.442c-0.758,90.561 -74.178,166.552 -167.994,166.552c-41.127,0 -79.997,-14.678 -110.63,-41.556c-4.743,-4.161 -11.906,-3.908 -16.368,0.553l-39.662,39.662c-4.872,4.872 -4.631,12.815 0.482,17.433c43.976,39.721 102.252,63.908 166.178,63.908c136.966,0 247.999,-111.033 248,-247.998c0.001,-136.809 -111.646,-248.247 -248.455,-248.002z" id="Vector"/>
 </g>
</svg> -->

<!-- <svg width="24" height="24" viewBox="0 0 512 512" xmlns="http://www.w3.org/2000/svg" fill="none">
 <g>
  <title>Layer 1</title>
  <path stroke="null" id="Vector" d="m255.64866,64.50018c-51.17143,0.09189 -97.63257,20.25653 -131.93424,53.03701l-27.57755,-27.57755c-11.67532,-11.67532 -31.63688,-3.40685 -31.63688,13.10385l0,103.51734c0,10.23521 8.29705,18.53226 18.53226,18.53226l103.51734,0c16.5107,0 24.77917,-19.96156 13.10462,-31.63688l-32.23841,-32.23841c23.83248,-22.31516 54.67094,-34.67617 87.43365,-34.95879c71.34765,-0.6162 131.48869,57.12337 130.87172,130.83929c-0.58531,69.92916 -57.27858,128.6077 -129.72118,128.6077c-31.75734,0 -61.77188,-11.33402 -85.42599,-32.08861c-3.66244,-3.21303 -9.19354,-3.01767 -12.639,0.42701l-30.6261,30.6261c-3.76205,3.76205 -3.57595,9.89545 0.37219,13.46137c33.95728,30.67166 78.95669,49.34832 128.3189,49.34832c105.76206,0 191.49923,-85.73718 191.50001,-191.49846c0.00077,-105.64082 -86.21052,-191.69073 -191.85135,-191.50155z" fill="#fff"/>
 </g>

</svg> -->

<svg width="24" height="24" viewBox="0 0 72 72" xmlns="http://www.w3.org/2000/svg" fill="none">
 <g>
  <title>Layer 1</title>
  <path stroke="null" id="Vector" d="m35.94679,7.00002c-7.7492,0.01392 -14.78509,3.06757 -19.9796,8.03171l-4.17623,-4.17623c-1.76806,-1.76806 -4.79096,-0.51592 -4.79096,1.9844l0,15.67626c0,1.54998 1.25647,2.80645 2.80645,2.80645l15.67626,0c2.50031,0 3.75246,-3.0229 1.98451,-4.79096l-4.88206,-4.88206c3.6091,-3.37932 8.27915,-5.25122 13.24061,-5.29402c10.80461,-0.09331 19.91213,8.65054 19.8187,19.81378c-0.08864,10.5898 -8.67404,19.47584 -19.64446,19.47584c-4.80921,0 -9.35449,-1.71638 -12.93657,-4.85937c-0.55463,-0.48657 -1.39223,-0.45698 -1.914,0.06467l-4.6379,4.6379c-0.56971,0.56971 -0.54153,1.49853 0.05636,2.03854c5.14236,4.64479 11.95689,7.47311 19.43211,7.47311c16.01619,0 28.99989,-12.9837 29,-28.99977c0.00012,-15.99783 -13.05538,-29.02889 -29.05321,-29.00024z" fill="#fff"/>
 </g>

</svg>